<?xml version="1.0" standalone="no"?>
<!DOCTYPE svg PUBLIC "-//W3C//DTD SVG 20010904//EN"
 "http://www.w3.org/TR/2001/REC-SVG-20010904/DTD/svg10.dtd">
<svg version="1.0" xmlns="http://www.w3.org/2000/svg"
 width="700.000000pt" height="700.000000pt" viewBox="0 0 700.000000 700.000000"
 preserveAspectRatio="xMidYMid meet">
<metadata>
Created by potrace 1.11, written by Peter Selinger 2001-2013
</metadata>
<g transform="translate(0.000000,700.000000) scale(0.100000,-0.100000)"
fill="#000000" stroke="none">
<path d="M0 3500 l0 -3500 3500 0 3500 0 0 3500 0 3500 -3500 0 -3500 0 0
-3500z m3680 781 c0 -338 -5 -438 -26 -504 -4 -11 22 5 64 40 57 48 621 385
683 408 13 5 35 -27 100 -141 46 -81 85 -151 87 -154 3 -9 -577 -346 -669
-390 -35 -16 -79 -33 -98 -36 -32 -6 -31 -8 40 -30 47 -15 148 -66 274 -140
110 -64 255 -148 323 -186 67 -39 125 -75 128 -80 6 -9 -151 -294 -167 -304
-10 -6 -580 321 -659 379 -30 22 -69 53 -86 69 l-30 29 17 -68 c16 -59 18
-118 18 -455 l1 -388 -180 0 -180 0 0 373 c0 336 6 446 26 510 5 17 -4 12 -38
-20 -25 -23 -65 -53 -88 -68 -76 -48 -632 -366 -635 -363 -1 2 -41 71 -88 153
-66 115 -83 153 -74 161 7 6 62 39 122 74 61 34 198 113 305 174 194 112 274
150 339 163 l35 6 -60 17 c-32 9 -81 28 -109 42 -48 25 -636 366 -644 374 -6
5 171 314 178 310 7 -4 402 -232 525 -304 44 -25 116 -76 161 -113 l82 -67
-15 47 c-13 38 -17 115 -20 454 l-3 407 180 0 181 0 0 -379z"/>
</g>
</svg>
